<?xml version="1.0" encoding="UTF-8"?>
<svg width="379px" height="83px" viewBox="0 0 379 83" version="1.1" xmlns="http://www.w3.org/2000/svg" xmlns:xlink="http://www.w3.org/1999/xlink">
    <title>编组</title>
    <g id="页面-1" stroke="none" stroke-width="1" fill="none" fill-rule="evenodd">
        <g id="编组" fill-rule="nonzero">
            <path d="M79.8689148,80.9551282 C77.1511395,83.6816239 72.7038709,83.6816239 69.9860956,80.9551282 L55.0383315,65.9594017 C52.3205562,63.2329059 52.3205562,58.7713675 55.0383315,56.0448718 C57.7561068,53.3183761 62.2033754,53.3183761 64.9211508,56.0448718 L79.8689148,71.0405983 C81.2290877,72.328352 82,74.1216246 82,75.9978633 C82,77.8741019 81.2290877,79.6673745 79.8689148,80.9551282 Z" id="路径" fill="#00C291"></path>
            <path d="M41.5333483,74.7779163 C17.6999264,77.3445925 -2.34459249,57.3000736 0.222083683,33.4666517 C2.05542389,16.1110316 16.1110316,2.05542382 33.4666517,0.222083696 C57.3000736,-2.34459256 77.3445925,17.6999264 74.7779163,41.5333483 C72.9445762,59.011191 59.011191,72.9445762 41.5333483,74.7779163 Z M40.0666762,12.6887967 C24.299951,11.0999019 11.0999019,24.2999509 12.6887967,40.0666762 C13.9110235,51.6778305 23.3221695,61.2111992 34.9333238,62.3112033 C50.7000491,63.9000981 63.9000982,50.700049 62.3112033,34.9333238 C61.2111993,23.3221695 51.6778305,13.9110234 40.0666762,12.6887967 Z" id="形状" fill="#444444"></path>
            <path d="M20,37.5 C20,47.1649831 27.8350169,55 37.5,55 C47.1649831,55 55,47.1649831 55,37.5 C55,27.8350169 47.1649831,20 37.5,20 C27.8350169,20 20,27.8350169 20,37.5 Z" id="路径" fill="#D6F5ED"></path>
            <path d="M28,37.5 C28,42.7467051 32.2532949,47 37.5,47 C42.7467051,47 47,42.7467051 47,37.5 C47,32.2532949 42.7467051,28 37.5,28 C32.2532949,28 28,32.2532949 28,37.5 L28,37.5 Z" id="路径" fill="#00C291"></path>
            <g id="SoSo.Fan" transform="translate(98.9492, 11.3203)" fill="#444444">
                <path d="M5.09765625,39.234375 L0,45.0703125 C5.4609375,49.7578125 11.9882812,52.1015625 19.5820312,52.1015625 C31.3242188,51.9609375 37.3242188,46.9921875 37.5820312,37.1953125 C37.5820312,33.5625 36.4453125,30.375 34.171875,27.6328125 C31.875,24.84375 28.3242188,23.1210938 23.5195312,22.4648438 C21.0820312,22.1601562 19.1601562,21.890625 17.7539062,21.65625 C15.2226562,21.1875 13.3828125,20.34375 12.234375,19.125 C11.0859375,17.9296875 10.5117188,16.59375 10.5117188,15.1171875 C10.5585938,12.65625 11.4140625,10.8046875 13.078125,9.5625 C14.671875,8.3671875 16.6640625,7.76953125 19.0546875,7.76953125 C23.671875,7.86328125 27.9023438,9.17578125 31.7460938,11.7070312 L36.0703125,5.30859375 C31.359375,1.91015625 25.8164062,0.140625 19.4414062,0 C14.1445312,0.046875 10.0546875,1.4296875 7.171875,4.1484375 C4.1953125,6.890625 2.70703125,10.5 2.70703125,14.9765625 C2.70703125,18.703125 3.890625,21.8671875 6.2578125,24.46875 C8.5546875,27 11.90625,28.6289062 16.3125,29.3554688 C18.7734375,29.7070312 21.0351562,30.0234375 23.0976562,30.3046875 C27.5976562,31.078125 29.8242188,33.375 29.7773438,37.1953125 C29.6835938,41.859375 26.3085938,44.2382812 19.6523438,44.3320312 C14.0273437,44.2851562 9.17578125,42.5859375 5.09765625,39.234375 Z" id="路径"></path>
                <path d="M43.3125,33.3984375 C43.3125,37.2421875 43.6289062,40.171875 44.2617188,42.1875 C44.9179688,44.203125 45.9257812,45.9492188 47.2851562,47.4257812 C48.2929688,48.5742188 49.6992188,49.6054688 51.5039062,50.5195312 C53.2851562,51.5273438 55.5703125,52.0546875 58.359375,52.1015625 C61.2421875,52.0546875 63.5742188,51.5273438 65.3554688,50.5195312 C66.3164062,50.0976562 67.1015625,49.59375 67.7109375,49.0078125 C68.390625,48.4921875 68.9648438,47.9648438 69.4335938,47.4257812 C70.8867188,45.9492188 71.9179688,44.203125 72.5273438,42.1875 C73.1132812,40.171875 73.40625,37.2421875 73.40625,33.3984375 C73.40625,29.5546875 73.1132812,26.6015625 72.5273438,24.5390625 C71.9179688,22.5234375 70.8867188,20.8242188 69.4335938,19.4414062 C68.4726562,18.2226562 67.1132812,17.1328125 65.3554688,16.171875 C63.5742188,15.2578125 61.2421875,14.7773438 58.359375,14.7304688 C55.5703125,14.7773438 53.2851562,15.2578125 51.5039062,16.171875 C49.6992188,17.1328125 48.2929688,18.2226562 47.2851562,19.4414062 C45.9257812,20.8242188 44.9179688,22.5234375 44.2617188,24.5390625 C43.6289062,26.6015625 43.3125,29.5546875 43.3125,33.3984375 Z M66.0585938,33.46875 C66.0585938,35.953125 65.9414062,37.78125 65.7070312,38.953125 C65.4726562,40.1484375 64.9921875,41.203125 64.265625,42.1171875 C63.7265625,42.8203125 62.9296875,43.4414062 61.875,43.9804688 C60.8671875,44.4960938 59.6953125,44.7539062 58.359375,44.7539062 C57.1171875,44.7539062 55.96875,44.4960938 54.9140625,43.9804688 C53.90625,43.4414062 53.0859375,42.8203125 52.453125,42.1171875 C51.8203125,41.203125 51.3632812,40.1484375 51.0820312,38.953125 C50.8007812,37.78125 50.6601562,35.9296875 50.6601562,33.3984375 C50.6601562,30.84375 50.8007812,28.96875 51.0820312,27.7734375 C51.3632812,26.625 51.8203125,25.6171875 52.453125,24.75 C53.0859375,23.9296875 53.90625,23.2851562 54.9140625,22.8164062 C55.96875,22.3242188 57.1171875,22.078125 58.359375,22.078125 C59.6953125,22.078125 60.8671875,22.3242188 61.875,22.8164062 C62.9296875,23.2851562 63.7265625,23.9296875 64.265625,24.75 C64.9921875,25.6171875 65.4726562,26.625 65.7070312,27.7734375 C65.9414062,28.96875 66.0585938,30.8671875 66.0585938,33.46875 Z" id="形状"></path>
                <path d="M82.40625,39.234375 L77.3085938,45.0703125 C82.7695312,49.7578125 89.296875,52.1015625 96.890625,52.1015625 C108.632812,51.9609375 114.632812,46.9921875 114.890625,37.1953125 C114.890625,33.5625 113.753906,30.375 111.480469,27.6328125 C109.183594,24.84375 105.632812,23.1210938 100.828125,22.4648438 C98.390625,22.1601562 96.46875,21.890625 95.0625,21.65625 C92.53125,21.1875 90.6914062,20.34375 89.5429688,19.125 C88.3945312,17.9296875 87.8203125,16.59375 87.8203125,15.1171875 C87.8671875,12.65625 88.7226562,10.8046875 90.3867188,9.5625 C91.9804688,8.3671875 93.9726562,7.76953125 96.3632812,7.76953125 C100.980469,7.86328125 105.210938,9.17578125 109.054688,11.7070312 L113.378906,5.30859375 C108.667969,1.91015625 103.125,0.140625 96.75,0 C91.453125,0.046875 87.3632812,1.4296875 84.4804688,4.1484375 C81.5039062,6.890625 80.015625,10.5 80.015625,14.9765625 C80.015625,18.703125 81.1992188,21.8671875 83.5664062,24.46875 C85.8632812,27 89.2148438,28.6289062 93.6210938,29.3554688 C96.0820312,29.7070312 98.34375,30.0234375 100.40625,30.3046875 C104.90625,31.078125 107.132812,33.375 107.085938,37.1953125 C106.992188,41.859375 103.617188,44.2382812 96.9609375,44.3320312 C91.3359375,44.2851562 86.484375,42.5859375 82.40625,39.234375 Z" id="路径"></path>
                <path d="M120.621094,33.3984375 C120.621094,37.2421875 120.9375,40.171875 121.570312,42.1875 C122.226562,44.203125 123.234375,45.9492188 124.59375,47.4257812 C125.601562,48.5742188 127.007812,49.6054688 128.8125,50.5195312 C130.59375,51.5273438 132.878906,52.0546875 135.667969,52.1015625 C138.550781,52.0546875 140.882812,51.5273438 142.664062,50.5195312 C143.625,50.0976562 144.410156,49.59375 145.019531,49.0078125 C145.699219,48.4921875 146.273438,47.9648438 146.742188,47.4257812 C148.195312,45.9492188 149.226562,44.203125 149.835938,42.1875 C150.421875,40.171875 150.714844,37.2421875 150.714844,33.3984375 C150.714844,29.5546875 150.421875,26.6015625 149.835938,24.5390625 C149.226562,22.5234375 148.195312,20.8242188 146.742188,19.4414062 C145.78125,18.2226562 144.421875,17.1328125 142.664062,16.171875 C140.882812,15.2578125 138.550781,14.7773438 135.667969,14.7304688 C132.878906,14.7773438 130.59375,15.2578125 128.8125,16.171875 C127.007812,17.1328125 125.601562,18.2226562 124.59375,19.4414062 C123.234375,20.8242188 122.226562,22.5234375 121.570312,24.5390625 C120.9375,26.6015625 120.621094,29.5546875 120.621094,33.3984375 Z M143.367188,33.46875 C143.367188,35.953125 143.25,37.78125 143.015625,38.953125 C142.78125,40.1484375 142.300781,41.203125 141.574219,42.1171875 C141.035156,42.8203125 140.238281,43.4414062 139.183594,43.9804688 C138.175781,44.4960938 137.003906,44.7539062 135.667969,44.7539062 C134.425781,44.7539062 133.277344,44.4960938 132.222656,43.9804688 C131.214844,43.4414062 130.394531,42.8203125 129.761719,42.1171875 C129.128906,41.203125 128.671875,40.1484375 128.390625,38.953125 C128.109375,37.78125 127.96875,35.9296875 127.96875,33.3984375 C127.96875,30.84375 128.109375,28.96875 128.390625,27.7734375 C128.671875,26.625 129.128906,25.6171875 129.761719,24.75 C130.394531,23.9296875 131.214844,23.2851562 132.222656,22.8164062 C133.277344,22.3242188 134.425781,22.078125 135.667969,22.078125 C137.003906,22.078125 138.175781,22.3242188 139.183594,22.8164062 C140.238281,23.2851562 141.035156,23.9296875 141.574219,24.75 C142.300781,25.6171875 142.78125,26.625 143.015625,27.7734375 C143.25,28.96875 143.367188,30.8671875 143.367188,33.46875 Z" id="形状"></path>
                <polygon id="路径" points="158.625 51.6796875 165.972656 51.6796875 165.972656 44.3320312 158.625 44.3320312"></polygon>
                <polygon id="路径" points="176.34375 51.6796875 184.113281 51.6796875 184.113281 29.7773438 205.417969 29.7773438 205.417969 22.8867188 184.113281 22.8867188 184.113281 7.76953125 209.074219 7.76953125 209.074219 0.421875 176.34375 0.421875"></polygon>
                <path d="M233.507812,51.6796875 L240.855469,51.6796875 L240.855469,26.7539062 C240.808594,22.3007812 239.414062,19.1601562 236.671875,17.3320312 C233.929688,15.5507813 230.261719,14.6835938 225.667969,14.7304688 C220.230469,14.6367188 216.117188,16.4179688 213.328125,20.0742188 L219.09375,24.46875 C219.726562,23.4140625 220.59375,22.6640625 221.695312,22.21875 C222.75,21.84375 224.191406,21.65625 226.019531,21.65625 C231.058594,21.5625 233.554688,23.1210938 233.507812,26.3320312 L233.507812,30.1640625 L223.347656,30.1640625 C219.457031,30.2109375 216.503906,31.265625 214.488281,33.328125 C212.472656,35.34375 211.464844,37.8867188 211.464844,40.9570312 C211.464844,44.1679688 212.625,46.8046875 214.945312,48.8671875 C217.148438,50.9765625 220.289062,52.0546875 224.367188,52.1015625 C226.851562,52.1015625 228.796875,51.796875 230.203125,51.1875 C231.632812,50.6015625 232.6875,49.6875 233.367188,48.4453125 L233.507812,48.4453125 L233.507812,51.6796875 Z M233.507812,38.8476562 C233.507812,41.5898438 232.933594,43.3476562 231.785156,44.1210938 C230.519531,44.8945312 228.351562,45.2578125 225.28125,45.2109375 C222.84375,45.2109375 221.097656,44.7304688 220.042969,43.7695312 C218.941406,42.9023438 218.390625,41.8476562 218.390625,40.6054688 C218.34375,37.7695312 220.453125,36.3046875 224.71875,36.2109375 L233.507812,36.2109375 L233.507812,38.8476562 Z" id="形状"></path>
                <path d="M250.347656,51.6796875 L257.695312,51.6796875 L257.695312,29.953125 C257.695312,27.3984375 258.386719,25.453125 259.769531,24.1171875 C261.128906,22.7578125 262.863281,22.078125 264.972656,22.078125 C267.082031,22.078125 268.804688,22.7578125 270.140625,24.1171875 C271.5,25.453125 272.179688,27.3984375 272.179688,29.953125 L272.179688,51.6796875 L279.527344,51.6796875 L279.527344,27.421875 C279.410156,23.25 278.109375,20.0859375 275.625,17.9296875 C273.117188,15.796875 270.351562,14.7304688 267.328125,14.7304688 C263.414062,14.7304688 260.25,16.171875 257.835938,19.0546875 L257.695312,19.0546875 L257.695312,15.1875 L250.347656,15.1875 L250.347656,51.6796875 Z" id="路径"></path>
            </g>
        </g>
    </g>
</svg>